<svg id="e08lp4b5720ju1" xmlns="http://www.w3.org/2000/svg" xmlns:xlink="http://www.w3.org/1999/xlink" viewBox="-1.650000 -1.900000 527.200000 424.150000" shape-rendering="geometricPrecision" text-rendering="geometricPrecision"><style><![CDATA[#e08lp4b5720ju80 {animation: e08lp4b5720ju80_c_o 2500ms linear infinite normal forwards}@keyframes e08lp4b5720ju80_c_o { 0% {opacity: 0} 16% {opacity: 0.500000} 28% {opacity: 1} 100% {opacity: 1} }#e08lp4b5720ju81 {animation: e08lp4b5720ju81_c_o 2500ms linear infinite normal forwards}@keyframes e08lp4b5720ju81_c_o { 0% {opacity: 0} 44% {opacity: 0.500000} 56% {opacity: 1} 100% {opacity: 1} }#e08lp4b5720ju82 {animation: e08lp4b5720ju82_c_o 2500ms linear infinite normal forwards}@keyframes e08lp4b5720ju82_c_o { 0% {opacity: 0} 72% {opacity: 0.500000} 84% {opacity: 1} 100% {opacity: 1} }]]></style><path id="e08lp4b5720ju2" d="M206.450000,19Q214.850000,23,208.150000,36.250000Q201.950000,48.500000,190.050000,56.800000L178.750000,65.100000Q171.900000,70.150000,167.750000,72.200000Q155.900000,78.050000,153.450000,66.300000Q150.150000,50.400000,149.600000,28.700000Q149,4.700000,153.450000,3.200000Q157.400000,1.900000,177.600000,8.250000Q196.050000,14.050000,206.450000,19" fill="rgb(0,106,107)" stroke="none" stroke-width="1"/><path id="e08lp4b5720ju3" d="M378,2.600000Q381.550000,5.700000,380.650000,31.850000Q379.850000,56.500000,376.700000,70.050000Q375.400000,75.800000,364.150000,69.600000Q354.400000,64.300000,340.850000,52.350000Q327.950000,40.950000,320.050000,31.150000Q311.500000,20.550000,314.900000,19Q323.350000,15,348.700000,8Q375.650000,0.550000,378,2.600000" fill="rgb(0,106,107)" stroke="none" stroke-width="1"/><path id="e08lp4b5720ju4" d="M150.750000,8.900000Q151.900000,15.650000,154.200000,23.950000Q158.800000,40.600000,164.500000,48.500000L153.450000,66.300000Q151.800000,55.950000,150.600000,43.600000Q148.250000,18.950000,150.750000,8.900000" fill="rgb(0,84,84)" stroke="none" stroke-width="1"/><path id="e08lp4b5720ju5" d="M380.100000,8.350000Q382.250000,23.400000,379.700000,48.250000Q378.400000,60.650000,376.700000,70.050000Q376.050000,67.750000,371.150000,59.050000L366.350000,50.750000Q369.900000,47.550000,375.350000,27.600000Q378.100000,17.650000,380.100000,8.350000" fill="rgb(0,84,84)" stroke="none" stroke-width="1"/><path id="e08lp4b5720ju6" d="M212.950000,20.500000Q215.950000,22.550000,215.300000,23.350000Q214.650000,24.100000,211.400000,22.450000Q199.900000,16.700000,179.550000,10.800000Q157.750000,4.500000,154.550000,6.950000Q151.450000,9.350000,152.700000,36.900000Q153.900000,63.050000,156.500000,72.800000Q157.600000,76.750000,156.350000,77.050000Q155.100000,77.300000,153.700000,73.450000Q152.350000,69.650000,150.650000,59.200000Q148.850000,48,147.950000,36.750000Q145.650000,6.650000,151.800000,3.050000Q157.600000,-0.350000,181.500000,7.150000Q203.750000,14.150000,212.950000,20.500000" fill="rgb(13,19,26)" stroke="none" stroke-width="1"/><path id="e08lp4b5720ju7" d="M378.850000,0.400000Q383.950000,3.350000,383.300000,32.600000Q382.650000,61.450000,377.750000,72.800000Q375.150000,78.950000,374.150000,78.350000Q373.200000,77.750000,375.200000,71.850000Q377.800000,64.100000,378.250000,35.050000Q378.750000,6.150000,376.500000,4.600000Q374.150000,3,346.500000,10.650000Q319.900000,18.050000,310.550000,22.250000Q307,23.850000,306.350000,22.850000Q305.700000,21.850000,309.050000,19.850000Q317.300000,14.850000,345.550000,6.600000Q374.800000,-1.900000,378.850000,0.400000" fill="rgb(13,19,26)" stroke="none" stroke-width="1"/><path id="e08lp4b5720ju8" d="M344.550000,164.050000Q311.400000,184.200000,261.300000,184.200000Q208.250000,184.200000,176.850000,160.400000Q162.350000,149.400000,154.700000,134.500000Q147.150000,119.800000,147.150000,102.850000Q147.150000,55.350000,183.650000,30.500000Q214.550000,9.500000,261.950000,9.500000Q284.900000,9.500000,305.550000,14.700000Q327.550000,20.250000,344,31Q381.750000,55.700000,381.750000,100.950000Q381.750000,141.400000,344.550000,164.050000" fill="rgb(0,106,107)" stroke="none" stroke-width="1"/><path id="e08lp4b5720ju9" d="M365.800000,103.050000Q365.800000,115.850000,357.400000,129.200000Q349.150000,142.350000,334.600000,153.200000Q319.550000,164.400000,301,170.700000Q281.050000,177.500000,260.250000,177.500000Q217.800000,177.500000,189.200000,154Q176.550000,143.650000,169.600000,130.500000Q162.700000,117.500000,162.700000,104.350000Q162.700000,70.200000,187.750000,48.250000Q197.350000,39.800000,209.200000,34.650000Q219.450000,30.200000,227.900000,29.500000Q228.950000,29.400000,245.750000,37.650000L262.350000,45.900000L280.200000,38.550000Q298.600000,31.200000,301.450000,31.200000Q310,31.200000,320.750000,36.200000Q332.150000,41.450000,341.850000,50.450000Q365.800000,72.700000,365.800000,103.050000" fill="rgb(253,234,190)" stroke="none" stroke-width="1"/><path id="e08lp4b5720ju10" d="M225.350000,90.850000Q225.900000,88,226.850000,85.100000Q228.750000,79.300000,230.700000,78.900000Q232.750000,78.450000,235.550000,82.800000Q237.950000,86.500000,238.300000,88.600000Q238.500000,89.800000,231.950000,90.450000L225.350000,90.850000" fill="rgb(255,255,255)" stroke="none" stroke-width="1"/><path id="e08lp4b5720ju11" d="M286.850000,89L289.050000,84.350000Q291.750000,79.750000,294.100000,80.150000Q296.500000,80.550000,297.750000,86.050000L298.500000,91.500000L286.850000,89" fill="rgb(255,255,255)" stroke="none" stroke-width="1"/><path id="e08lp4b5720ju12" d="M372.200000,132.600000Q379.200000,119.200000,379.200000,104.750000Q379.200000,61.150000,348.100000,36.500000Q317,11.850000,261.950000,11.850000Q209.250000,11.850000,179.450000,36.700000Q149.700000,61.600000,149.700000,105.600000Q149.700000,120.350000,156.350000,133.700000Q163.300000,147.750000,176.750000,158.250000Q207.400000,182.300000,261.950000,182.300000Q318.400000,182.300000,350.800000,157.550000Q364.850000,146.800000,372.200000,132.600000M383.950000,104.750000Q383.950000,120,376.650000,134.150000Q368.900000,149.100000,354.250000,160.450000Q320.500000,186.550000,261.950000,186.550000Q205.300000,186.550000,173.450000,161.200000Q159.500000,150.100000,152.200000,135.250000Q145.300000,121.150000,145.300000,105.600000Q145.300000,60.400000,176.650000,34.600000Q207.850000,8.900000,261.950000,8.900000Q319.250000,8.900000,351.500000,34Q383.950000,59.300000,383.950000,104.750000" fill="rgb(13,19,26)" stroke="none" stroke-width="1"/><path id="e08lp4b5720ju13" d="M367.550000,103.050000Q367.550000,116.550000,359.800000,130.100000Q352.050000,143.650000,338.100000,154.500000Q323.500000,165.850000,304.700000,172.200000Q284.450000,179,261.950000,179Q212.350000,179,184.250000,152.050000Q172.900000,141.150000,166.900000,127.300000Q161.500000,114.900000,161.500000,103.050000Q161.500000,71.400000,185.400000,48.450000Q195.300000,38.950000,207.150000,33.450000Q218.450000,28.200000,228.100000,28.200000L229,28.400000Q239.150000,34.100000,250.150000,39.250000Q259.850000,43.800000,261.950000,44.200000Q263.950000,44.050000,275.300000,39.550000Q287.050000,34.850000,300,29L300.850000,28.850000Q309.450000,28.850000,320.550000,34.050000Q332.350000,39.550000,342.450000,48.900000Q367.550000,72.050000,367.550000,103.050000M355.550000,128.550000Q363.200000,115.700000,363.200000,103.050000Q363.200000,73.350000,339.050000,51.150000Q329.550000,42.450000,318.550000,37.200000Q308.450000,32.400000,301.200000,32.300000L279.800000,41.100000Q264.400000,47.200000,261.950000,47.200000Q260.300000,47.200000,249.200000,42.050000Q242.550000,38.950000,227.650000,31.650000Q217.100000,31.750000,206,37.450000Q195.050000,43.050000,186.050000,52.800000Q176.650000,62.950000,171.400000,75.450000Q165.700000,88.900000,165.700000,103.050000Q165.700000,114.200000,170.850000,125.950000Q176.650000,139,187.500000,149.250000Q214.450000,174.700000,261.950000,174.700000Q282.950000,174.700000,302.200000,168.250000Q320.150000,162.300000,334.300000,151.550000Q347.900000,141.250000,355.550000,128.550000" fill="rgb(13,19,26)" stroke="none" stroke-width="1"/><path id="e08lp4b5720ju14" d="M192.900000,67.550000Q189.650000,68.350000,189.350000,67.250000Q189,66.200000,192.100000,65Q201.500000,61.400000,215.550000,60.600000Q229.650000,59.800000,237.800000,62.500000Q240.800000,63.500000,240.600000,64.600000Q240.400000,65.700000,237.350000,65Q228.450000,63.050000,216.650000,63.800000Q205.400000,64.500000,192.900000,67.550000" fill="rgb(13,19,26)" stroke="none" stroke-width="1"/><path id="e08lp4b5720ju15" d="M331.950000,64.400000Q334.300000,66,333.550000,67.150000Q332.800000,68.300000,330.450000,66.700000Q324.950000,63,309.450000,62.050000Q293.900000,61.050000,283.800000,63.750000Q281.750000,64.300000,281.450000,63.100000Q281.100000,61.900000,283.150000,61.250000Q294.250000,57.700000,309.700000,58.750000Q325.050000,59.800000,331.950000,64.400000" fill="rgb(13,19,26)" stroke="none" stroke-width="1"/><path id="e08lp4b5720ju16" d="M297.400000,90.100000Q300.050000,90.950000,299.900000,92.100000Q299.750000,93.200000,297.100000,92.550000Q285.800000,89.900000,264.250000,89.800000Q242.750000,89.650000,226.600000,92.150000Q224.150000,92.550000,223.800000,91.500000Q223.450000,90.500000,225.850000,89.950000Q240.650000,86.250000,263,86.250000Q285.600000,86.250000,297.400000,90.100000" fill="rgb(13,19,26)" stroke="none" stroke-width="1"/><path id="e08lp4b5720ju17" d="M231.250000,80.900000Q230.050000,81.150000,228.650000,84.500000Q227.200000,87.900000,227.400000,90.400000Q224.650000,91.800000,224.600000,90.600000Q224.400000,87.550000,225.700000,83.250000Q227.300000,78.050000,229.900000,77.100000Q232.350000,76.200000,235.950000,81.150000Q239.100000,85.500000,239.650000,88.400000Q239.800000,89.250000,238.350000,89.650000Q236.850000,90,236.700000,89.150000Q236.200000,86.350000,234.350000,83.500000Q232.500000,80.700000,231.250000,80.900000" fill="rgb(13,19,26)" stroke="none" stroke-width="1"/><path id="e08lp4b5720ju18" d="M295.050000,77.850000Q297.550000,78.500000,298.750000,83.300000Q299.600000,86.850000,299.600000,91.650000L298.250000,91.700000Q296.900000,90.950000,296.950000,90.250000Q297.200000,88.200000,296.200000,85.300000Q295.200000,82.300000,293.900000,82.150000Q292.650000,81.850000,290.700000,84.150000Q288.750000,86.450000,287.900000,89.250000Q287.650000,90.100000,286.500000,90.100000Q285.400000,90.100000,285.550000,89.200000Q286.350000,84.150000,289.750000,80.550000Q292.850000,77.300000,295.050000,77.850000" fill="rgb(13,19,26)" stroke="none" stroke-width="1"/><path id="e08lp4b5720ju19" d="M118.650000,154.850000L137.600000,269.200000Q130.800000,275.050000,111.350000,286.650000Q90,299.350000,75.650000,305.350000Q55.850000,313.600000,41.950000,315.250000Q23.150000,317.450000,17.750000,307.050000Q7.050000,286.450000,14.900000,263.450000Q21.800000,243.050000,45.250000,215.900000Q59.950000,198.900000,83.050000,180.450000Q100.800000,166.250000,118.650000,154.850000" fill="rgb(0,106,107)" stroke="none" stroke-width="1"/><path id="e08lp4b5720ju20" d="M438.250000,178.350000Q463.450000,198.200000,478.350000,215.900000Q501.650000,243.600000,509.050000,261.200000Q519.800000,286.800000,506.250000,305.700000Q496.500000,319.350000,472.650000,313.700000Q464.650000,311.800000,454.600000,307.600000L441.650000,301.900000Q433.100000,298.350000,415.400000,287.900000Q398.700000,278.050000,385.450000,269.050000L401.900000,152.850000Q418.550000,162.800000,438.250000,178.350000" fill="rgb(0,106,107)" stroke="none" stroke-width="1"/><path id="e08lp4b5720ju21" d="M137.200000,238.050000Q139.750000,241.600000,140.850000,248.600000Q142.050000,255.900000,140.850000,262.100000Q139.500000,269.300000,135.300000,272.100000Q73.150000,313.350000,47.250000,314.800000Q30.950000,315.700000,24.750000,311.450000Q22.800000,310.150000,22.050000,308.450000L21.750000,307.050000Q42.600000,296.800000,66.750000,282.900000Q115.100000,255.150000,131.850000,237.100000Q134.500000,234.250000,137.200000,238.050000" fill="rgb(0,84,84)" stroke="none" stroke-width="1"/><path id="e08lp4b5720ju22" d="M380.800000,241.500000Q383.350000,239.550000,389.300000,245.350000Q402.200000,258,452.650000,285.600000Q477.850000,299.450000,500.500000,310.700000Q495.300000,314.050000,486.850000,314.400000Q475.200000,314.900000,458.850000,309.550000Q443.100000,304.350000,416.850000,289.100000Q397.700000,277.950000,388.500000,271.300000Q385.500000,269.150000,382.750000,262.400000Q380.100000,255.950000,379.400000,249.850000Q378.650000,243.200000,380.800000,241.500000" fill="rgb(0,84,84)" stroke="none" stroke-width="1"/><path id="e08lp4b5720ju23" d="M401.500000,154.550000Q393.650000,150.150000,394.400000,149.200000Q395.150000,148.250000,403.400000,152Q435.250000,166.550000,469.700000,201.900000Q485.650000,218.200000,496.850000,234.250000Q508.600000,251.150000,512.750000,264.350000Q516.350000,275.750000,512.200000,292.150000Q508,308.800000,499.800000,313.900000Q488.750000,320.700000,468.150000,316Q434.850000,308.400000,385.500000,271.400000Q379.650000,267,380.700000,265.550000Q381.700000,264.050000,387.700000,268.200000Q438.200000,302.950000,469.900000,311Q489.150000,315.850000,497.750000,310.550000Q504.350000,306.500000,507.650000,293.950000Q511.300000,280.200000,507.800000,265.650000Q501.900000,241.300000,465.400000,204.850000Q449.850000,189.300000,432.550000,175.750000Q415.500000,162.350000,401.500000,154.550000" fill="rgb(13,19,26)" stroke="none" stroke-width="1"/><path id="e08lp4b5720ju24" d="M481.250000,312.350000Q483.250000,311.350000,485.950000,311.550000Q488.550000,311.750000,490.300000,313L491.650000,314.100000Q492.200000,314.750000,492.100000,315.450000Q491.600000,319,488.550000,322.600000Q486,325.700000,485,325.700000Q482.600000,325.700000,480.550000,321.200000Q478.950000,317.600000,478.950000,315.750000Q478.950000,313.550000,481.250000,312.350000" fill="rgb(13,19,26)" stroke="none" stroke-width="1"/><path id="e08lp4b5720ju25" d="M484.700000,314.800000Q487.700000,314.900000,488.350000,316.050000Q488.950000,317.100000,487,319.800000Q485.150000,322.300000,484.300000,322.450000Q483.700000,322.450000,482.350000,319.600000Q480.900000,316.650000,481.300000,315.750000Q481.700000,314.700000,484.700000,314.800000" fill="rgb(255,255,255)" stroke="none" stroke-width="1"/><path id="e08lp4b5720ju26" d="M500.650000,305.750000L503.850000,305.950000Q505,306.550000,505.400000,307.800000Q506.800000,311.400000,506.900000,315.750000Q506.950000,320.200000,505.550000,321.150000Q503.400000,322.550000,498.800000,319.600000Q494.150000,316.600000,493.650000,313.350000Q493.200000,310.850000,495.650000,308.500000Q497.750000,306.550000,500.650000,305.750000" fill="rgb(13,19,26)" stroke="none" stroke-width="1"/><path id="e08lp4b5720ju27" d="M502.350000,309Q503.400000,309.150000,503.900000,313.850000Q504.350000,318.450000,503.600000,319Q502.900000,319.450000,500,317Q497,314.450000,496.950000,313.150000Q496.900000,311.850000,499.050000,310.300000Q501.100000,308.800000,502.350000,309" fill="rgb(255,255,255)" stroke="none" stroke-width="1"/><path id="e08lp4b5720ju28" d="M507.750000,295.750000Q510.200000,294.800000,512.250000,296.500000Q514.950000,298.600000,516.850000,303.850000Q518.750000,309.150000,517.350000,310.550000Q516.150000,311.750000,511.500000,310.950000Q506.600000,310.150000,503.500000,307.800000L502.500000,306.900000Q502.100000,306.350000,502.100000,305.500000L502.150000,304.550000Q502.500000,302.050000,503.900000,299.600000Q505.550000,296.650000,507.750000,295.750000" fill="rgb(13,19,26)" stroke="none" stroke-width="1"/><path id="e08lp4b5720ju29" d="M509.800000,299.550000Q510.900000,299.650000,513.300000,303.800000Q515.750000,307.900000,515.200000,308.750000Q514.750000,309.550000,510.550000,307.850000Q506.450000,306.200000,506,305.350000Q505.500000,304.350000,506.850000,301.900000Q508.300000,299.350000,509.800000,299.550000" fill="rgb(255,255,255)" stroke="none" stroke-width="1"/><path id="e08lp4b5720ju30" d="M508.800000,286.150000Q510.600000,284.750000,512.950000,285.750000Q516.500000,287.300000,519.700000,292Q522.950000,296.700000,521.800000,298.500000Q520.950000,299.800000,517.950000,300.050000Q514.150000,300.400000,509,298.450000Q507,297.650000,506.500000,294.400000L506.400000,292.600000Q506.400000,287.950000,508.800000,286.150000" fill="rgb(13,19,26)" stroke="none" stroke-width="1"/><path id="e08lp4b5720ju31" d="M510.800000,288.800000Q512.100000,288.250000,515.800000,291.850000Q519.400000,295.400000,519.400000,296.900000Q519.400000,298.150000,514.900000,297.350000Q510.450000,296.550000,509.900000,295.300000Q509.350000,294,509.600000,291.650000Q509.850000,289.200000,510.800000,288.800000" fill="rgb(255,255,255)" stroke="none" stroke-width="1"/><path id="e08lp4b5720ju32" d="M507.550000,281.400000L507.750000,279Q508.200000,277,509.400000,275.900000Q510.600000,274.850000,512.200000,275Q515.400000,275.250000,520.450000,280.450000Q525.550000,285.700000,523.800000,287.600000Q522.550000,288.950000,517.200000,288.900000L510.550000,288.100000Q509.050000,287.550000,508.250000,285.500000Q507.550000,283.700000,507.550000,281.400000" fill="rgb(13,19,26)" stroke="none" stroke-width="1"/><path id="e08lp4b5720ju33" d="M511.950000,278.100000Q513.100000,277.550000,516.850000,281.100000Q520.500000,284.550000,520.350000,285.550000Q520.200000,286.350000,516.300000,285.950000Q512.600000,285.550000,511.500000,284.850000Q510.500000,284.200000,510.650000,281.450000Q510.800000,278.700000,511.950000,278.100000" fill="rgb(255,255,255)" stroke="none" stroke-width="1"/><path id="e08lp4b5720ju34" d="M126.200000,151.500000Q127.050000,152,122.450000,154.550000Q108.450000,162.350000,91.450000,175.750000Q74.150000,189.300000,58.600000,204.850000Q22.100000,241.300000,16.200000,265.650000Q12.400000,281.500000,15.050000,293.400000Q17.700000,305.300000,26.200000,310.550000Q34.850000,315.850000,54.100000,311Q85.750000,302.950000,136.300000,268.200000Q141.950000,264.350000,142.950000,265.800000Q143.950000,267.300000,138.500000,271.400000Q97.200000,302.550000,64.750000,313Q37.150000,321.850000,24.200000,313.900000Q14.200000,307.750000,11.100000,291.300000Q8.300000,276.400000,12.350000,263.650000Q21.350000,235.300000,54.350000,202.050000Q86.550000,169.600000,120.550000,153.300000Q125.350000,151,126.200000,151.500000" fill="rgb(13,19,26)" stroke="none" stroke-width="1"/><path id="e08lp4b5720ju35" d="M45.250000,311.350000Q47.750000,312.650000,47.750000,315.050000Q47.750000,316.600000,45.350000,321Q42.750000,325.700000,41.150000,325.700000Q39.400000,325.700000,36.500000,322.100000Q33.500000,318.400000,33.050000,315.250000Q32.800000,313.450000,34.500000,312.200000Q36.600000,310.750000,39.700000,310.450000Q42.950000,310.150000,45.250000,311.350000" fill="rgb(13,19,26)" stroke="none" stroke-width="1"/><path id="e08lp4b5720ju36" d="M40.900000,322.750000Q40,322.750000,37.900000,319.400000Q35.850000,316,36.250000,314.950000Q36.650000,314,38.450000,313.950000L42.150000,314.250000Q44.200000,314.550000,44.550000,315.100000Q44.550000,317.300000,43.150000,320.100000Q41.800000,322.750000,40.900000,322.750000" fill="rgb(255,255,255)" stroke="none" stroke-width="1"/><path id="e08lp4b5720ju37" d="M23.800000,306.200000Q26.500000,306.900000,28.950000,309.050000Q31.850000,311.550000,31.450000,313.850000L30.950000,313.500000Q30.450000,316.450000,25.550000,319.550000Q20.700000,322.550000,18.950000,321.350000Q17.800000,320.550000,17.850000,315.950000Q17.900000,311.350000,19.050000,308.200000Q19.500000,306.950000,20.600000,306.400000L23.800000,306.200000" fill="rgb(13,19,26)" stroke="none" stroke-width="1"/><path id="e08lp4b5720ju38" d="M22.150000,309.200000Q23.300000,308.900000,25.700000,310.500000Q28.050000,312.050000,28.350000,313.150000Q28.150000,314.250000,25.050000,316.400000Q21.950000,318.500000,21.150000,318.100000Q20.300000,317.700000,20.650000,313.650000Q21,309.550000,22.150000,309.200000" fill="rgb(255,255,255)" stroke="none" stroke-width="1"/><path id="e08lp4b5720ju39" d="M17.300000,297.300000Q20.250000,298.450000,21.450000,302.800000Q22.600000,306.950000,20.900000,308.200000Q18.400000,310.050000,13.650000,311.100000L7.550000,310.900000Q6.150000,309.500000,8.300000,304.400000Q10.350000,299.450000,12.800000,297.450000L17.300000,297.300000" fill="rgb(13,19,26)" stroke="none" stroke-width="1"/><path id="e08lp4b5720ju40" d="M15.100000,299.900000Q16.250000,299.750000,17.750000,302.200000Q19.200000,304.600000,18.900000,305.700000Q18.650000,306.700000,14.850000,307.750000L10.400000,308Q9.750000,307.150000,11.800000,303.600000Q13.850000,300.050000,15.100000,299.900000" fill="rgb(255,255,255)" stroke="none" stroke-width="1"/><path id="e08lp4b5720ju41" d="M10.700000,286.700000L12.650000,286.500000Q13.300000,286.700000,14.350000,287.500000Q17.350000,289.750000,17.100000,293.550000Q16.900000,297.100000,14.450000,298.050000Q11.200000,299.300000,7.100000,299.650000Q2.450000,300.100000,1.600000,298.700000Q0.600000,297.150000,3.400000,293.050000Q6.400000,288.600000,10.700000,286.700000" fill="rgb(13,19,26)" stroke="none" stroke-width="1"/><path id="e08lp4b5720ju42" d="M12.250000,289.450000Q13.850000,290,14.250000,291.700000Q14.700000,293.400000,13.600000,295.250000Q13.100000,296.100000,9.300000,296.650000L5,296.550000Q4.400000,295.800000,7.350000,292.400000Q10.350000,288.850000,12.250000,289.450000" fill="rgb(255,255,255)" stroke="none" stroke-width="1"/><path id="e08lp4b5720ju43" d="M2.350000,280.450000Q6.350000,274.950000,10.650000,274.600000Q14.250000,274.350000,14.700000,280.300000Q15.150000,286.250000,11.700000,287.550000Q9.050000,288.550000,6.500000,288.900000Q2.500000,289.500000,0.850000,288.100000Q-1.650000,286,2.350000,280.450000" fill="rgb(13,19,26)" stroke="none" stroke-width="1"/><path id="e08lp4b5720ju44" d="M10.650000,277.750000Q11.500000,278.600000,11.450000,281.050000Q11.400000,283.400000,10.650000,284.400000Q10,285.300000,6.650000,285.800000L2.900000,285.650000Q2.100000,284.400000,4.950000,281.250000Q7.900000,278.050000,10.650000,277.750000" fill="rgb(255,255,255)" stroke="none" stroke-width="1"/><path id="e08lp4b5720ju45" d="M454.050000,283.550000Q454.050000,347.550000,393.350000,376.900000Q344.500000,400.500000,259.150000,400.500000Q172.200000,400.500000,121.800000,370.700000Q69.900000,340.050000,69.900000,285.250000Q69.900000,245.450000,82,212.700000Q94.250000,179.550000,118,155.950000Q142.350000,131.700000,177.350000,119Q213.750000,105.800000,259.700000,105.800000Q354.600000,105.800000,405.200000,153.750000Q454.050000,200.100000,454.050000,283.550000" fill="rgb(0,106,107)" stroke="none" stroke-width="1"/><path id="e08lp4b5720ju46" d="M360.250000,125.750000Q385.950000,137.200000,400.150000,153.200000Q416.400000,171.550000,416.400000,194.600000Q416.400000,221.450000,398.550000,236.150000Q384.100000,248,365.200000,248Q356.500000,248,318.550000,241.700000Q280.550000,235.400000,262,235.400000Q250.750000,235.400000,235.750000,238.350000Q227.450000,240,208.050000,244.850000Q189.650000,249.450000,179.350000,251.350000Q163.250000,254.300000,150.200000,254.300000Q124.400000,254.300000,110.950000,236.950000Q100.900000,224.050000,100.900000,208.450000Q100.900000,184.650000,114.050000,164.850000Q126.450000,146.200000,149.400000,132.650000Q171.450000,119.600000,200.800000,112.650000Q229.750000,105.800000,262,105.800000Q284.900000,105.800000,309.800000,110.500000Q337.950000,115.800000,360.250000,125.750000" fill="rgb(253,234,190)" stroke="none" stroke-width="1"/><path id="e08lp4b5720ju47" d="M436,348.800000Q420.500000,366.700000,393.150000,379.350000Q340.700000,403.550000,262,403.550000Q224.400000,403.550000,190.250000,397.050000Q155.400000,390.450000,129.050000,378Q101.400000,364.900000,86.500000,346.850000Q70.500000,327.550000,70.500000,304.200000L73.050000,306.750000Q76.500000,309.950000,80.950000,313.400000Q95.250000,324.450000,114.350000,333.650000Q175.500000,363.050000,262,363.050000Q336.550000,363.050000,403.050000,334.400000Q423.850000,325.400000,441.300000,314.650000Q450.050000,309.300000,454.650000,305.700000Q452.600000,329.650000,436,348.800000" fill="rgb(0,84,84)" stroke="none" stroke-width="1"/><path id="e08lp4b5720ju48" d="M402.950000,370.100000Q452.700000,341.650000,452.700000,289.850000Q452.700000,201.800000,403.600000,154.800000Q354.500000,107.750000,262.550000,107.750000Q170.600000,107.750000,121.550000,154.800000Q72.450000,201.800000,72.450000,289.850000Q72.450000,341.650000,122.200000,370.100000Q171.950000,398.550000,262.550000,398.550000Q353.200000,398.550000,402.950000,370.100000M457.950000,289.850000Q457.950000,343.450000,406.500000,373.150000Q355.100000,402.800000,262.550000,402.800000Q170,402.800000,118.700000,373.150000Q67.350000,343.450000,67.350000,289.850000Q67.350000,200.700000,118.500000,152.700000Q169.200000,105.150000,262.550000,105.150000Q351.850000,105.150000,402.550000,148.850000Q457.950000,196.600000,457.950000,289.850000" fill="rgb(13,19,26)" stroke="none" stroke-width="1"/><path id="e08lp4b5720ju49" d="M403.250000,160.550000Q392.050000,144.750000,371.250000,132.800000Q350.500000,120.850000,323,114.400000Q294.600000,107.750000,262.550000,107.750000Q233.150000,107.750000,205.450000,114Q176.350000,120.550000,154.100000,132.900000Q130.100000,146.250000,117.100000,164.700000Q102.850000,184.850000,102.850000,209.600000Q102.850000,226.500000,114.600000,238.300000Q128,251.800000,151.350000,251.800000Q161.750000,251.800000,206.400000,242.650000Q251,233.450000,261.400000,233.450000Q274.750000,233.450000,314.900000,239.750000Q355.050000,246.050000,362.350000,246.050000Q386.500000,246.050000,401.400000,229.900000Q414.850000,215.300000,414.850000,195.250000Q414.850000,176.850000,403.250000,160.550000M324.550000,112.300000Q352.900000,118.800000,374.150000,130.900000Q395.550000,143.050000,407.100000,159.250000Q419,176.050000,419,195.250000Q419,216.900000,404.400000,233.100000Q388.200000,251,362.350000,251Q351.450000,251,313.750000,243.950000Q276.100000,236.900000,261.400000,236.900000Q249.950000,236.900000,206.600000,246.600000Q163.200000,256.300000,151.350000,256.300000Q126.150000,256.300000,111.450000,241.300000Q98.500000,228.050000,98.500000,209.600000Q98.500000,186.600000,110.600000,167.100000Q122.350000,148.150000,144.400000,134.250000Q166.350000,120.450000,196.250000,113.100000Q226.800000,105.600000,262.550000,105.600000Q295.500000,105.600000,324.550000,112.300000" fill="rgb(13,19,26)" stroke="none" stroke-width="1"/><path id="e08lp4b5720ju50" d="M43.700000,378.950000Q38.950000,368.100000,38.950000,357.500000Q38.950000,323.500000,62.100000,303.700000Q84.300000,284.700000,120.400000,284.700000Q148.400000,284.700000,166.750000,305.650000Q174.750000,314.750000,179.150000,326.300000Q183.450000,337.550000,183.450000,348.900000Q183.450000,360.600000,178.950000,372.500000Q174.150000,385.300000,165.250000,395.350000Q143.900000,419.450000,108.350000,419.450000Q77.850000,419.450000,57.450000,398.900000Q48.600000,390.050000,43.700000,378.950000" fill="rgb(253,234,190)" stroke="none" stroke-width="1"/><path id="e08lp4b5720ju51" d="M413.950000,280.100000Q445.550000,280.100000,464.950000,296.300000Q485.600000,313.600000,485.600000,344.350000Q485.600000,357.450000,480.150000,370.800000Q474.650000,384.350000,464.750000,395.200000Q442.050000,420,409.350000,420Q380.600000,420,362.150000,399.150000Q354.250000,390.150000,349.900000,378.800000Q345.700000,367.850000,345.700000,356.950000Q345.700000,320.300000,366.650000,299.200000Q385.550000,280.100000,413.950000,280.100000" fill="rgb(253,234,190)" stroke="none" stroke-width="1"/><path id="e08lp4b5720ju52" d="M43.700000,365.650000Q50.600000,369.200000,58.550000,372.150000Q83.900000,381.600000,110.050000,381.600000Q136.200000,381.600000,162.600000,368.400000Q175.800000,361.800000,183.750000,355.200000Q183.750000,363.150000,179.300000,373.450000Q174.300000,385,165.600000,394.650000Q143.150000,419.450000,108.350000,419.450000Q74.700000,419.450000,53.800000,394.700000Q46.400000,386,42,375.650000Q38.400000,367.300000,38.400000,362.700000L43.700000,365.650000" fill="rgb(218,202,165)" stroke="none" stroke-width="1"/><path id="e08lp4b5720ju53" d="M345.550000,347.200000L348.150000,351.600000Q351.850000,356.850000,357.300000,361.250000Q374.750000,375.300000,403.050000,375.300000Q431.350000,375.300000,460.750000,367.850000Q475.450000,364.150000,484.450000,360.400000Q484.450000,368.500000,478.850000,378.650000Q473.050000,389.150000,463.250000,398.150000Q439.450000,420,409.350000,420Q374.600000,420,358.200000,395.350000Q345.550000,376.450000,345.550000,347.200000" fill="rgb(218,202,165)" stroke="none" stroke-width="1"/><path id="e08lp4b5720ju54" d="M446.500000,287.650000Q434.950000,283.450000,421.450000,282.650000Q408.200000,281.850000,396.150000,284.550000Q383.750000,287.300000,375.500000,293.150000Q364.100000,301.250000,356.700000,316.600000Q349.350000,331.900000,348.350000,349.500000Q347.450000,365.750000,352.500000,379.650000Q357.550000,393.550000,367.650000,402.500000Q375.350000,409.350000,385.950000,413.400000Q397.700000,417.900000,410.300000,417.850000Q441.100000,417.650000,466.400000,391.150000Q474.250000,382.900000,478.850000,371.150000Q483.450000,359.500000,483.900000,346.800000Q484.850000,318.250000,466.450000,299.850000Q458.800000,292.200000,446.500000,287.650000M451.200000,284.450000Q462.800000,289.200000,469.500000,295.900000Q479.300000,305.700000,484.150000,319.350000Q488.650000,332.050000,488.350000,346.350000Q488.050000,360.100000,483.400000,372.750000Q478.700000,385.450000,470.550000,394.350000Q459.650000,406.250000,445.400000,413.150000Q431.700000,419.800000,416.750000,421Q401.950000,422.250000,388.250000,417.950000Q374.150000,413.550000,363.350000,403.950000Q353.750000,395.450000,348.550000,380.300000Q343.400000,365.350000,344,348.500000Q344.650000,330.800000,351.550000,315.850000Q359.200000,299.450000,373.100000,289.600000Q394.350000,274.550000,425.950000,278.100000Q439.450000,279.600000,451.200000,284.450000" fill="rgb(13,19,26)" stroke="none" stroke-width="1"/><path id="e08lp4b5720ju55" d="M37.650000,368.850000Q34.500000,354.750000,37.650000,339.900000Q40.700000,325.600000,48.800000,314Q57.050000,302.150000,68.500000,296.050000Q98.200000,280.200000,126.350000,282.600000Q154.500000,284.950000,170.850000,304.800000Q180.900000,317,184.200000,332.600000Q187.250000,347.100000,184.050000,362.350000Q180.950000,377.100000,172.650000,389.500000Q164.200000,402.100000,152.250000,409.500000Q142.500000,415.550000,129.650000,418.500000Q116.300000,421.550000,102.650000,420.550000Q70.700000,418.200000,51.350000,396Q41.050000,384.200000,37.650000,368.850000M71.200000,299.800000Q60.250000,305.650000,52.600000,316.900000Q44.950000,328.150000,42.350000,342.250000Q39.700000,356.850000,43.200000,370.550000Q46.650000,384.250000,55.700000,394.650000Q73.350000,414.900000,102.750000,417.050000Q115.800000,418,128.500000,414.850000Q141.150000,411.650000,151,405Q163.350000,396.700000,171,384.550000Q178.700000,372.400000,180.800000,358Q182.800000,344.200000,179.300000,331.050000Q175.750000,317.900000,167.400000,307.750000Q152,289,125.800000,286.850000Q99.600000,284.650000,71.200000,299.800000" fill="rgb(13,19,26)" stroke="none" stroke-width="1"/><path id="e08lp4b5720ju56" d="M89.200000,258.350000Q92.450000,257.800000,102.750000,265.150000Q114.050000,273.250000,116.750000,280.500000Q118.500000,285.250000,113.300000,291.800000Q109.050000,297.150000,105.300000,298.850000Q101.800000,300.450000,96,299.750000Q89,298.950000,86.950000,294.650000Q84.800000,290.150000,86.150000,274.200000Q87.500000,258.600000,89.200000,258.350000" fill="rgb(255,255,255)" stroke="none" stroke-width="1"/><path id="e08lp4b5720ju57" d="M86.100000,275.350000Q89.650000,282.250000,96.250000,288.650000Q103.500000,295.750000,108.700000,296.150000L109.050000,296.200000Q106.800000,298.150000,105.300000,298.850000Q101.800000,300.450000,96,299.750000Q89,298.950000,86.950000,294.650000Q85.900000,292.450000,85.700000,286.800000Q85.550000,281.800000,86.100000,275.350000" fill="rgb(219,220,220)" stroke="none" stroke-width="1"/><path id="e08lp4b5720ju58" d="M35.700000,293.850000Q40.900000,291.950000,54.800000,296.300000Q68.350000,300.550000,70.500000,304.200000Q72.300000,307.300000,70.450000,314.750000Q68.850000,321.150000,66.650000,324.450000Q64.850000,327.200000,56.800000,328.500000Q48.500000,329.850000,46.050000,327.150000Q43.300000,324.050000,38.550000,309.450000Q33.700000,294.600000,35.700000,293.850000" fill="rgb(255,255,255)" stroke="none" stroke-width="1"/><path id="e08lp4b5720ju59" d="M52.200000,315.100000Q62.500000,323.400000,67.550000,322.950000L66.650000,324.450000Q64.850000,327.200000,56.800000,328.500000Q48.500000,329.850000,46.050000,327.150000Q44.050000,324.900000,40.350000,314.650000Q36.650000,304.500000,35.500000,298.200000Q42.850000,307.550000,52.200000,315.100000" fill="rgb(219,220,220)" stroke="none" stroke-width="1"/><path id="e08lp4b5720ju60" d="M16.200000,360.400000Q16.200000,359.700000,18.200000,357.500000Q20.500000,354.950000,23.550000,352.750000Q32.200000,346.400000,40.300000,347.400000Q48.550000,348.400000,52.650000,355.550000Q55.650000,360.900000,55.200000,365.750000Q54.750000,370.550000,52.300000,374.100000Q48.700000,379.250000,42.200000,378.750000Q35.300000,378.200000,25.450000,370.700000Q16.200000,363.650000,16.200000,360.400000" fill="rgb(255,255,255)" stroke="none" stroke-width="1"/><path id="e08lp4b5720ju61" d="M26.150000,371.200000Q17.350000,364.700000,16.350000,360.950000Q24.400000,364.500000,35.050000,367.050000Q45.850000,369.650000,54.300000,370Q53,373.950000,50.450000,376.200000Q47.150000,379.150000,42.200000,378.750000Q35.600000,378.250000,26.150000,371.200000" fill="rgb(219,220,220)" stroke="none" stroke-width="1"/><path id="e08lp4b5720ju62" d="M99.250000,392.500000Q96.500000,387,95.950000,381Q94.550000,366.100000,106.600000,356.350000Q118.300000,346.950000,135.400000,346.950000Q141.800000,347,147.050000,348.350000Q151.850000,349.650000,153.050000,351.200000Q161.800000,362.800000,158.950000,375.400000Q156.500000,386.150000,146.800000,394.400000Q138.050000,401.850000,125.300000,403.900000Q112.200000,406,105.450000,400.500000Q101.850000,397.600000,99.250000,392.500000" fill="rgb(118,73,27)" stroke="none" stroke-width="1"/><path id="e08lp4b5720ju63" d="M99.250000,392.450000Q96.500000,386.950000,95.900000,380.900000L110.050000,381.600000Q134.500000,381.600000,159.750000,369.950000Q159.450000,376.350000,155.700000,383.500000Q152.050000,390.450000,146.800000,394.900000Q138.100000,402.300000,125.300000,404.150000Q112.250000,406,105.450000,400.500000Q101.850000,397.550000,99.250000,392.450000" fill="rgb(92,55,12)" stroke="none" stroke-width="1"/><path id="e08lp4b5720ju64" d="M401.150000,395.700000Q384.550000,397,376.650000,387.500000Q368.950000,378.250000,370.300000,364.900000Q371.450000,353.750000,376.650000,348.550000Q384.650000,340.550000,401.400000,341.500000Q408.550000,341.900000,414.200000,344.100000Q420.050000,346.350000,422.150000,349.700000Q427.600000,358.350000,429.200000,369.050000Q431.150000,382.100000,424.450000,387.500000Q415.700000,394.550000,401.150000,395.700000" fill="rgb(118,73,27)" stroke="none" stroke-width="1"/><path id="e08lp4b5720ju65" d="M418.150000,265.750000Q431.300000,254.250000,433.600000,255.250000Q435.900000,256.300000,435.550000,273.200000Q435.200000,289.250000,434,291.950000Q433.100000,294.100000,426.950000,294.500000Q420.550000,294.950000,416.400000,292.750000Q411.200000,289.950000,407.400000,286.200000Q402.800000,281.750000,404.200000,279.350000Q405.750000,276.600000,418.150000,265.750000" fill="rgb(255,255,255)" stroke="none" stroke-width="1"/><path id="e08lp4b5720ju66" d="M434,291.950000Q433.100000,294.100000,426.950000,294.500000Q420.550000,294.950000,416.400000,292.750000L413.500000,291Q420.900000,293.500000,427.850000,282.350000Q433.800000,272.750000,435.150000,262.150000L435.350000,262Q435.850000,269,435.300000,280Q434.700000,290.300000,434,291.950000" fill="rgb(219,220,220)" stroke="none" stroke-width="1"/><path id="e08lp4b5720ju67" d="M455.800000,292.350000Q458.300000,289.500000,472.250000,286.200000Q486.100000,282.900000,487.500000,284.700000Q488.550000,286,481.600000,300.650000Q474.800000,315,473.350000,316.050000Q472.250000,316.900000,466.150000,314.600000Q460.200000,312.300000,456.950000,309.950000Q453.850000,307.650000,453.500000,301.400000Q453.150000,295.250000,455.800000,292.350000" fill="rgb(255,255,255)" stroke="none" stroke-width="1"/><path id="e08lp4b5720ju68" d="M481.600000,300.650000Q474.800000,315,473.350000,316.050000Q472.250000,316.900000,466.150000,314.600000Q460.200000,312.300000,456.950000,309.950000Q455.350000,308.800000,454.500000,306.350000L456.550000,307.650000Q463.850000,313,474.450000,302.050000Q478.550000,297.850000,487.500000,284.700000Q488.550000,286,481.600000,300.650000" fill="rgb(219,220,220)" stroke="none" stroke-width="1"/><path id="e08lp4b5720ju69" d="M478.450000,341.800000Q480.850000,336.700000,483.300000,336.700000Q485.750000,336.700000,496.750000,341.600000Q508.150000,346.700000,508.150000,348.550000Q508.150000,350.400000,498.550000,356.100000Q489.200000,361.600000,486.350000,361.900000Q483.850000,362.200000,480.250000,357.700000Q476.700000,353.350000,476.400000,350.050000Q476.100000,346.650000,478.450000,341.800000" fill="rgb(255,255,255)" stroke="none" stroke-width="1"/><path id="e08lp4b5720ju70" d="M481.650000,359.300000Q479.050000,356.650000,477.450000,353.350000L492.950000,351.200000L507.950000,348.100000L508.150000,348.550000Q508.150000,350.400000,498.550000,356.100000Q489.200000,361.600000,486.350000,361.900000Q484.450000,362.100000,481.650000,359.300000" fill="rgb(219,220,220)" stroke="none" stroke-width="1"/><path id="e08lp4b5720ju71" d="M401.150000,395.700000Q384.550000,397,376.650000,387.500000Q370.300000,379.950000,370.150000,369.200000Q384.750000,375.300000,403.050000,375.300000L429.550000,373.650000Q429.800000,383.200000,424.450000,387.500000Q415.700000,394.550000,401.150000,395.700000" fill="rgb(92,55,12)" stroke="none" stroke-width="1"/><path id="e08lp4b5720ju72" d="M378.600000,385.950000Q387,394.300000,400.350000,394.100000Q413.650000,393.950000,423.550000,385.300000Q428.100000,381.300000,427.950000,372Q427.850000,365.450000,425.300000,359.200000Q422.800000,352.900000,419,349.850000Q411.750000,343.950000,401.100000,343.150000Q389.550000,342.300000,380.600000,348.250000Q376.800000,350.800000,374.500000,354.900000Q372.200000,359.050000,371.650000,364.250000Q371.050000,370.350000,372.950000,376.250000Q374.850000,382.150000,378.600000,385.950000M377.800000,343.950000Q387.750000,337.350000,401.100000,338.800000Q413.150000,340.100000,421.450000,346.850000Q430.800000,354.450000,432.650000,368.450000Q434.550000,382.600000,426.750000,389.450000Q416.100000,398.750000,400.900000,398.600000Q385.600000,398.450000,375.850000,388.700000Q366.400000,379.250000,367.350000,364.600000Q368.250000,350.300000,377.800000,343.950000" fill="rgb(13,19,26)" stroke="none" stroke-width="1"/><path id="e08lp4b5720ju73" d="M434.150000,270.750000Q434.150000,260.300000,433.350000,257.100000Q429.600000,258.600000,419.200000,266.950000Q408.700000,275.400000,406.400000,278.900000Q405.850000,279.650000,405.850000,280.600000L406.050000,281.850000Q406.800000,284.250000,409.900000,286.850000Q412.950000,289.400000,416.900000,290.900000Q422.550000,293.100000,427.350000,292.750000Q431.850000,292.450000,432.800000,290.250000Q433.400000,288.800000,433.800000,282.850000Q434.150000,277.350000,434.150000,270.750000M429.350000,254.700000Q434,252.100000,435.350000,252.650000Q436.650000,253.200000,437.500000,257.900000Q438.650000,264.550000,437.900000,277.700000Q437.250000,289.650000,436.300000,291.850000Q434.550000,295.850000,428.600000,296.800000Q422.500000,297.750000,415.350000,295Q408.150000,292.250000,404.450000,286.650000Q400.700000,280.900000,403.600000,276.550000Q405.850000,273.250000,414.250000,265.950000Q423.300000,258.050000,429.350000,254.700000" fill="rgb(13,19,26)" stroke="none" stroke-width="1"/><path id="e08lp4b5720ju74" d="M485.850000,285.550000Q481.650000,285.650000,470.650000,288.550000Q459.600000,291.500000,457.850000,293.050000Q455.350000,295.200000,455.250000,298.850000L455.250000,299Q455.250000,301.850000,456.750000,304.950000Q458.300000,308,460.950000,310.400000Q463.350000,312.650000,467.800000,313.900000Q471.800000,315.050000,473,314.450000Q474.700000,312.650000,479.850000,301.200000Q485.100000,289.550000,485.850000,285.550000M454.800000,290Q456.650000,288.400000,465.450000,285.750000Q474.300000,283.100000,481.100000,282.150000Q487.900000,281.200000,489.300000,282.300000Q490.600000,283.400000,489.200000,288.400000Q487.250000,295.250000,482.550000,305.850000Q477.600000,316.850000,475.700000,318.100000Q473.250000,319.750000,467.100000,318.050000Q461.150000,316.400000,457.950000,313.500000Q451.950000,308,451.400000,300.400000Q450.850000,293.450000,454.800000,290" fill="rgb(13,19,26)" stroke="none" stroke-width="1"/><path id="e08lp4b5720ju75" d="M483.100000,338.650000Q481.350000,338.800000,479.750000,342.500000Q478.100000,346.350000,478.350000,350.350000Q478.600000,354.050000,481.100000,356.900000Q483.500000,359.600000,486,359.600000Q488.200000,359.600000,496.200000,355.100000Q504.150000,350.650000,506.500000,348.200000Q503.450000,346,494.600000,342.250000Q485.350000,338.400000,483.100000,338.650000M476.300000,340.250000Q478.950000,335.100000,482.750000,334.750000Q486.150000,334.400000,497.650000,339.300000Q509.350000,344.250000,510.650000,346.900000Q511.350000,348.150000,510.400000,349.600000Q508.550000,352.650000,498.950000,358.050000Q489.400000,363.500000,486,363.500000Q481.750000,363.500000,478.100000,359.550000Q474.350000,355.550000,474.050000,350.550000Q473.700000,345.200000,476.300000,340.250000" fill="rgb(13,19,26)" stroke="none" stroke-width="1"/><path id="e08lp4b5720ju76" d="M107.250000,358.450000Q98.150000,365.750000,97.300000,376.650000Q96.500000,386.500000,102.450000,394.800000Q107.300000,401.550000,119.600000,401.700000Q132.150000,401.900000,141.600000,394.950000Q154.350000,385.550000,157.500000,376.250000Q160.700000,366.950000,154.800000,356.350000Q152.700000,352.550000,147.350000,350.450000Q142.100000,348.450000,135.200000,348.550000Q119.400000,348.750000,107.250000,358.450000M92.500000,376.100000Q93.500000,362.750000,104.150000,354.250000Q116.250000,344.550000,134.200000,344.350000Q142.500000,344.250000,148.700000,346.750000Q155.400000,349.400000,158.200000,354.450000Q164.900000,366.450000,161.400000,377.100000Q157.900000,387.800000,143.900000,398.100000Q133.700000,405.550000,120.600000,405.500000Q107.050000,405.400000,99.300000,397.050000Q91.550000,388.700000,92.500000,376.100000" fill="rgb(13,19,26)" stroke="none" stroke-width="1"/><path id="e08lp4b5720ju77" d="M89.850000,260.500000Q89.100000,262.500000,88.400000,268.500000Q87.700000,274.950000,87.700000,281Q87.700000,290.500000,89.500000,293.750000Q90.500000,295.400000,96.150000,296.450000L106.100000,296.100000Q109.600000,294.750000,112.750000,290.300000Q115.600000,286.200000,115.600000,283.750000L115.550000,283.200000Q113.100000,274.650000,102.750000,267.100000Q94.350000,260.950000,89.850000,260.500000M87.750000,256.950000Q89.450000,256,94,257.700000Q98.650000,259.500000,103.750000,263.100000Q116.750000,272.200000,119.800000,282.900000Q120.850000,286.600000,116.600000,292.600000Q112.400000,298.550000,107.550000,300.400000Q102.550000,302.350000,95.100000,300.800000Q87.700000,299.250000,85.850000,296Q83,291,83.800000,274.850000Q84.650000,258.700000,87.750000,256.950000" fill="rgb(13,19,26)" stroke="none" stroke-width="1"/><path id="e08lp4b5720ju78" d="M34.050000,292.850000Q37.550000,289.300000,51.450000,292.500000Q65.650000,295.750000,72,302.100000Q74.950000,305.050000,73.300000,314.750000Q71.600000,324.700000,67.050000,327.700000Q61.950000,331.100000,54.450000,331.150000Q47.050000,331.200000,44.200000,327.950000Q41.850000,325.250000,36.900000,311Q31.450000,295.450000,34.050000,292.850000M40.300000,294.900000Q38.150000,294.900000,37.050000,295.450000L37,295.750000Q37,299.300000,40.800000,310.950000Q44.650000,322.700000,46.550000,324.900000Q48.250000,326.850000,53.950000,326.700000Q60.050000,326.500000,64.200000,323.750000Q66.100000,322.500000,67.550000,319.350000Q69.050000,316.150000,69.650000,312.200000Q70,309.550000,69.850000,307.450000Q69.700000,305.750000,69.350000,305.300000Q65.850000,301.800000,56.200000,298.350000Q46.550000,294.900000,40.300000,294.900000" fill="rgb(13,19,26)" stroke="none" stroke-width="1"/><path id="e08lp4b5720ju79" d="M31.750000,351.800000Q23.400000,355.050000,19.750000,358.550000Q17.950000,360.250000,18.050000,361.400000Q18.300000,365.150000,27.150000,370.600000Q35.650000,375.850000,40.750000,376.200000Q46.250000,376.600000,49.750000,373.200000Q52.900000,370.200000,53.500000,365.450000L53.550000,363.900000Q53.550000,361.350000,52.650000,358.800000Q51.700000,356.150000,50.050000,354.050000Q46.600000,349.650000,41.800000,349.100000Q39.300000,348.850000,31.750000,351.800000M25.300000,373.950000Q14.550000,367.450000,14.150000,361.650000Q13.800000,356.550000,25.450000,350.400000Q36.500000,344.550000,42.500000,345.200000Q48.300000,345.850000,53.550000,351.550000Q59.350000,357.950000,58.450000,365.250000Q57.600000,372.050000,52.700000,376.350000Q47.700000,380.700000,41.150000,380.200000Q34.900000,379.750000,25.300000,373.950000" fill="rgb(13,19,26)" stroke="none" stroke-width="1"/><text id="e08lp4b5720ju80" dx="0" dy="0" font-family="sans-serif" font-size="40.015200" transform="matrix(1 0 0 1 338.23243000000002 109.06757500000001)" opacity="0" fill="rgb(0,0,0)" stroke="none" stroke-width="1"><![CDATA[Z]]></text><text id="e08lp4b5720ju81" dx="0" dy="0" font-family="sans-serif" font-size="40.015200" transform="matrix(1.57675000000000 0 0 1.17678000000000 369.54445312500002 88.56138656249999)" opacity="0" fill="rgb(0,0,0)" stroke="none" stroke-width="1"><![CDATA[Z]]></text><text id="e08lp4b5720ju82" dx="0" dy="0" font-family="sans-serif" font-size="40.015200" transform="matrix(2.28660000000000 0 0 1.70712000000000 403.93228749999992 81.14203874999998)" opacity="0" fill="rgb(0,0,0)" stroke="none" stroke-width="1"><![CDATA[Z]]></text></svg>